<mxfile host="app.diagrams.net" modified="2023-08-04T03:36:32.780Z" agent="Mozilla/5.0 (X11; Linux x86_64) AppleWebKit/537.36 (KHTML, like Gecko) Chrome/114.0.0.0 Safari/537.36" version="21.6.5" etag="Cta-wH826ERIof1nN14G" type="github">
  <diagram name="第 1 页" id="d6s4btO8wHbfBexpUp8I">
    <mxGraphModel>
      <root>
        <mxCell id="0" />
        <mxCell id="1" parent="0" />
      </root>
    </mxGraphModel>
  </diagram>
</mxfile>
